<mxfile host="app.diagrams.net" modified="2021-04-02T03:42:16.966Z" agent="5.0 (Windows NT 6.1; Win64; x64) AppleWebKit/537.36 (KHTML, like Gecko) Chrome/87.0.4280.88 Safari/537.36" etag="pi74AuZgoGGHwUGZS1Sp" version="14.5.4" type="github">
  <diagram id="gjcbIw523nzxVOy9dIOd" name="Page-1">
    <mxGraphModel dx="868" dy="393" grid="1" gridSize="10" guides="1" tooltips="1" connect="1" arrows="1" fold="1" page="1" pageScale="1" pageWidth="827" pageHeight="1169" math="0" shadow="0">
      <root>
        <mxCell id="0" />
        <mxCell id="1" parent="0" />
        <mxCell id="ICscc2CEpFQDagKAyucQ-8" style="edgeStyle=orthogonalEdgeStyle;rounded=0;orthogonalLoop=1;jettySize=auto;html=1;exitX=1;exitY=0.5;exitDx=0;exitDy=0;entryX=0;entryY=0.5;entryDx=0;entryDy=0;" edge="1" parent="1" source="ICscc2CEpFQDagKAyucQ-1" target="ICscc2CEpFQDagKAyucQ-2">
          <mxGeometry relative="1" as="geometry" />
        </mxCell>
        <mxCell id="ICscc2CEpFQDagKAyucQ-1" value="&lt;font style=&quot;font-size: 24px&quot;&gt;水样样品&lt;/font&gt;" style="rounded=1;whiteSpace=wrap;html=1;fillColor=#e1d5e7;strokeColor=#9673a6;" vertex="1" parent="1">
          <mxGeometry x="4" y="90" width="120" height="60" as="geometry" />
        </mxCell>
        <mxCell id="ICscc2CEpFQDagKAyucQ-9" style="edgeStyle=orthogonalEdgeStyle;rounded=0;orthogonalLoop=1;jettySize=auto;html=1;exitX=1;exitY=0.5;exitDx=0;exitDy=0;entryX=0;entryY=0.5;entryDx=0;entryDy=0;" edge="1" parent="1" source="ICscc2CEpFQDagKAyucQ-2" target="ICscc2CEpFQDagKAyucQ-3">
          <mxGeometry relative="1" as="geometry" />
        </mxCell>
        <mxCell id="ICscc2CEpFQDagKAyucQ-2" value="&lt;font style=&quot;font-size: 24px&quot;&gt;预处理&lt;/font&gt;" style="shape=process;whiteSpace=wrap;html=1;backgroundOutline=1;fillColor=#dae8fc;strokeColor=#6c8ebf;" vertex="1" parent="1">
          <mxGeometry x="164" y="90" width="120" height="60" as="geometry" />
        </mxCell>
        <mxCell id="ICscc2CEpFQDagKAyucQ-10" style="edgeStyle=orthogonalEdgeStyle;rounded=0;orthogonalLoop=1;jettySize=auto;html=1;exitX=1;exitY=0.5;exitDx=0;exitDy=0;entryX=0;entryY=0.5;entryDx=0;entryDy=0;" edge="1" parent="1" source="ICscc2CEpFQDagKAyucQ-3" target="ICscc2CEpFQDagKAyucQ-6">
          <mxGeometry relative="1" as="geometry" />
        </mxCell>
        <mxCell id="ICscc2CEpFQDagKAyucQ-3" value="&lt;font style=&quot;font-size: 24px&quot;&gt;三维荧光&lt;br&gt;快速检测&lt;br&gt;&lt;/font&gt;" style="shape=process;whiteSpace=wrap;html=1;backgroundOutline=1;fillColor=#dae8fc;strokeColor=#6c8ebf;" vertex="1" parent="1">
          <mxGeometry x="324" y="90" width="130" height="60" as="geometry" />
        </mxCell>
        <mxCell id="ICscc2CEpFQDagKAyucQ-12" style="edgeStyle=orthogonalEdgeStyle;rounded=0;orthogonalLoop=1;jettySize=auto;html=1;exitX=0.5;exitY=1;exitDx=0;exitDy=0;entryX=0.5;entryY=0;entryDx=0;entryDy=0;" edge="1" parent="1" source="ICscc2CEpFQDagKAyucQ-6" target="ICscc2CEpFQDagKAyucQ-11">
          <mxGeometry relative="1" as="geometry" />
        </mxCell>
        <mxCell id="ICscc2CEpFQDagKAyucQ-6" value="&lt;font style=&quot;font-size: 24px&quot;&gt;峰识别&lt;br&gt;匹配&lt;br&gt;&lt;/font&gt;" style="shape=process;whiteSpace=wrap;html=1;backgroundOutline=1;fillColor=#dae8fc;strokeColor=#6c8ebf;" vertex="1" parent="1">
          <mxGeometry x="494" y="90" width="130" height="60" as="geometry" />
        </mxCell>
        <mxCell id="ICscc2CEpFQDagKAyucQ-7" value="&lt;span style=&quot;font-size: 20pt ; font-family: &amp;#34;calibri&amp;#34; ; font-weight: bold&quot;&gt;PARAFAC-SOM&lt;/span&gt;" style="shape=process;whiteSpace=wrap;html=1;backgroundOutline=1;fillColor=#dae8fc;strokeColor=#6c8ebf;" vertex="1" parent="1">
          <mxGeometry x="673" y="210" width="150" height="60" as="geometry" />
        </mxCell>
        <mxCell id="ICscc2CEpFQDagKAyucQ-31" style="edgeStyle=orthogonalEdgeStyle;rounded=0;orthogonalLoop=1;jettySize=auto;html=1;exitX=0.5;exitY=1;exitDx=0;exitDy=0;entryX=0.5;entryY=0;entryDx=0;entryDy=0;" edge="1" parent="1" source="ICscc2CEpFQDagKAyucQ-11" target="ICscc2CEpFQDagKAyucQ-24">
          <mxGeometry relative="1" as="geometry" />
        </mxCell>
        <mxCell id="ICscc2CEpFQDagKAyucQ-11" value="&lt;font style=&quot;font-size: 24px&quot;&gt;相似度&lt;br&gt;矩阵&lt;/font&gt;" style="rounded=1;whiteSpace=wrap;html=1;fillColor=#e1d5e7;strokeColor=#9673a6;" vertex="1" parent="1">
          <mxGeometry x="499" y="210" width="120" height="60" as="geometry" />
        </mxCell>
        <mxCell id="ICscc2CEpFQDagKAyucQ-13" value="" style="endArrow=classic;startArrow=classic;html=1;" edge="1" parent="1">
          <mxGeometry width="50" height="50" relative="1" as="geometry">
            <mxPoint x="444" y="240" as="sourcePoint" />
            <mxPoint x="499" y="240" as="targetPoint" />
            <Array as="points">
              <mxPoint x="479" y="240" />
            </Array>
          </mxGeometry>
        </mxCell>
        <mxCell id="ICscc2CEpFQDagKAyucQ-18" value="" style="endArrow=classic;startArrow=classic;html=1;" edge="1" parent="1">
          <mxGeometry width="50" height="50" relative="1" as="geometry">
            <mxPoint x="308" y="239.5" as="sourcePoint" />
            <mxPoint x="363" y="239.5" as="targetPoint" />
            <Array as="points">
              <mxPoint x="343" y="239.5" />
            </Array>
          </mxGeometry>
        </mxCell>
        <mxCell id="ICscc2CEpFQDagKAyucQ-19" value="" style="endArrow=classic;startArrow=classic;html=1;" edge="1" parent="1">
          <mxGeometry width="50" height="50" relative="1" as="geometry">
            <mxPoint x="619" y="239.5" as="sourcePoint" />
            <mxPoint x="674" y="239.5" as="targetPoint" />
            <Array as="points">
              <mxPoint x="654" y="239.5" />
            </Array>
          </mxGeometry>
        </mxCell>
        <mxCell id="ICscc2CEpFQDagKAyucQ-27" style="edgeStyle=orthogonalEdgeStyle;rounded=0;orthogonalLoop=1;jettySize=auto;html=1;exitX=0;exitY=0.5;exitDx=0;exitDy=0;entryX=1;entryY=0.5;entryDx=0;entryDy=0;" edge="1" parent="1" source="ICscc2CEpFQDagKAyucQ-24" target="ICscc2CEpFQDagKAyucQ-26">
          <mxGeometry relative="1" as="geometry" />
        </mxCell>
        <mxCell id="ICscc2CEpFQDagKAyucQ-24" value="&lt;font style=&quot;font-size: 24px&quot;&gt;解析匹配&lt;br&gt;&lt;/font&gt;" style="shape=process;whiteSpace=wrap;html=1;backgroundOutline=1;fillColor=#dae8fc;strokeColor=#6c8ebf;" vertex="1" parent="1">
          <mxGeometry x="484.5" y="340" width="149" height="60" as="geometry" />
        </mxCell>
        <mxCell id="ICscc2CEpFQDagKAyucQ-26" value="&lt;font style=&quot;font-size: 24px&quot;&gt;结果展示&lt;/font&gt;" style="rounded=1;whiteSpace=wrap;html=1;fillColor=#e1d5e7;strokeColor=#9673a6;" vertex="1" parent="1">
          <mxGeometry x="294" y="340" width="120" height="60" as="geometry" />
        </mxCell>
        <mxCell id="ICscc2CEpFQDagKAyucQ-28" value="&lt;span style=&quot;font-size: 18px&quot;&gt;纯化学品荧光&lt;/span&gt;&lt;span style=&quot;font-size: 18px&quot;&gt;指纹数据库&lt;/span&gt;" style="shape=cylinder3;whiteSpace=wrap;html=1;boundedLbl=1;backgroundOutline=1;size=15;fillColor=#f5f5f5;strokeColor=#666666;fontColor=#333333;" vertex="1" parent="1">
          <mxGeometry x="227" y="180" width="80" height="120" as="geometry" />
        </mxCell>
        <mxCell id="ICscc2CEpFQDagKAyucQ-29" value="&lt;span style=&quot;color: rgb(0 , 0 , 0) ; font-size: 18px&quot;&gt;污染源&lt;br&gt;荧光&lt;/span&gt;&lt;span style=&quot;color: rgb(0 , 0 , 0) ; font-size: 18px&quot;&gt;指纹&lt;br&gt;数据库&lt;/span&gt;" style="shape=cylinder3;whiteSpace=wrap;html=1;boundedLbl=1;backgroundOutline=1;size=15;fillColor=#f5f5f5;strokeColor=#666666;fontColor=#333333;" vertex="1" parent="1">
          <mxGeometry x="363" y="180" width="80" height="120" as="geometry" />
        </mxCell>
      </root>
    </mxGraphModel>
  </diagram>
</mxfile>
